<?xml version="1.0" encoding="UTF-8"?>
<!DOCTYPE svg PUBLIC "-//W3C//DTD SVG 1.1//EN" "http://www.w3.org/Graphics/SVG/1.1/DTD/svg11.dtd">
<svg xmlns="http://www.w3.org/2000/svg" version="1.1" width="64px" height="64px" style="shape-rendering:geometricPrecision; text-rendering:geometricPrecision; image-rendering:optimizeQuality; fill-rule:evenodd; clip-rule:evenodd" xmlns:xlink="http://www.w3.org/1999/xlink">
<g><path style="opacity:0.474" fill="#181514" d="M 14.5,6.5 C 13.791,7.40397 12.791,7.73731 11.5,7.5C 11.7678,9.09903 11.4345,10.4324 10.5,11.5C 10.81,8.2869 10.4767,5.2869 9.5,2.5C 7.61216,4.98785 6.9455,7.98785 7.5,11.5C 6.56552,10.4324 6.23219,9.09903 6.5,7.5C 4.90097,7.23219 3.56764,7.56552 2.5,8.5C 1.52333,11.2869 1.19,14.2869 1.5,17.5C 16.0097,17.8293 30.3431,17.4959 44.5,16.5C 44.5,13.5 44.5,10.5 44.5,7.5C 43.1667,7.5 41.8333,7.5 40.5,7.5C 40.7678,9.09903 40.4345,10.4324 39.5,11.5C 39.81,8.2869 39.4767,5.2869 38.5,2.5C 36.6122,4.98785 35.9455,7.98785 36.5,11.5C 35.5655,10.4324 35.2322,9.09903 35.5,7.5C 32.1667,7.5 28.8333,7.5 25.5,7.5C 25.5,9.16667 25.5,10.8333 25.5,12.5C 21.7053,13.0415 19.7053,11.3748 19.5,7.5C 18.8165,7.13727 18.1499,6.80393 17.5,6.5C 18.209,5.59603 19.209,5.26269 20.5,5.5C 20.0146,0.841461 21.848,-0.491872 26,1.5C 26.49,2.79323 26.6567,4.12656 26.5,5.5C 29.1667,5.5 31.8333,5.5 34.5,5.5C 34.4258,1.29859 36.2591,-0.0347401 40,1.5C 40.49,2.79323 40.6567,4.12656 40.5,5.5C 42.7224,5.17798 44.5557,5.84464 46,7.5C 46.3333,12.8333 46.6667,18.1667 47,23.5C 51.6918,16.1364 56.6918,15.8031 62,22.5C 62.6667,24.1667 62.6667,25.8333 62,27.5C 57.3665,33.1349 52.3665,38.4682 47,43.5C 46.6667,49.1667 46.3333,54.8333 46,60.5C 45.5,61 45,61.5 44.5,62C 29.9253,62.8231 15.4253,62.6564 1,61.5C 0.333333,43.5 0.333333,25.5 1,7.5C 2.10963,5.96317 3.60963,5.2965 5.5,5.5C 5.42576,1.29859 7.2591,-0.0347401 11,1.5C 11.49,2.79323 11.6567,4.12656 11.5,5.5C 12.791,5.26269 13.791,5.59603 14.5,6.5 Z"/></g>
<g><path style="opacity:1" fill="#747474" d="M 38.5,2.5 C 39.4767,5.2869 39.81,8.2869 39.5,11.5C 38.5,12.8333 37.5,12.8333 36.5,11.5C 38.3878,9.01215 39.0545,6.01215 38.5,2.5 Z"/></g>
<g><path style="opacity:1" fill="#d2d2d2" d="M 38.5,2.5 C 39.0545,6.01215 38.3878,9.01215 36.5,11.5C 35.9455,7.98785 36.6122,4.98785 38.5,2.5 Z"/></g>
<g><path style="opacity:1" fill="#747474" d="M 9.5,2.5 C 10.4767,5.2869 10.81,8.2869 10.5,11.5C 9.5,12.8333 8.5,12.8333 7.5,11.5C 9.38784,9.01215 10.0545,6.01215 9.5,2.5 Z"/></g>
<g><path style="opacity:1" fill="#d2d2d2" d="M 9.5,2.5 C 10.0545,6.01215 9.38784,9.01215 7.5,11.5C 6.9455,7.98785 7.61216,4.98785 9.5,2.5 Z"/></g>
<g><path style="opacity:1" fill="#ececec" d="M 22.5,2.5 C 23.7647,3.51448 24.4313,5.01448 24.5,7C 24.1667,8.5 23.8333,10 23.5,11.5C 22.5159,8.57186 22.1826,5.57186 22.5,2.5 Z"/></g>
<g><path style="opacity:1" fill="#e95f3f" d="M 17.5,6.5 C 18.1499,6.80393 18.8165,7.13727 19.5,7.5C 19.7053,11.3748 21.7053,13.0415 25.5,12.5C 25.5,10.8333 25.5,9.16667 25.5,7.5C 28.8333,7.5 32.1667,7.5 35.5,7.5C 35.2322,9.09903 35.5655,10.4324 36.5,11.5C 37.5,12.8333 38.5,12.8333 39.5,11.5C 40.4345,10.4324 40.7678,9.09903 40.5,7.5C 41.8333,7.5 43.1667,7.5 44.5,7.5C 44.5,10.5 44.5,13.5 44.5,16.5C 42.8333,16.5 41.1667,16.5 39.5,16.5C 28.2146,14.5216 16.5479,13.8549 4.5,14.5C 4.66212,12.4727 4.49546,10.4727 4,8.5C 3.50258,11.146 3.33591,13.8127 3.5,16.5C 2.52693,14.0521 2.1936,11.3854 2.5,8.5C 3.56764,7.56552 4.90097,7.23219 6.5,7.5C 6.23219,9.09903 6.56552,10.4324 7.5,11.5C 8.5,12.8333 9.5,12.8333 10.5,11.5C 11.4345,10.4324 11.7678,9.09903 11.5,7.5C 12.791,7.73731 13.791,7.40397 14.5,6.5C 15.5,5.16667 16.5,5.16667 17.5,6.5 Z"/></g>
<g><path style="opacity:1" fill="#faa292" d="M 39.5,16.5 C 27.5,16.5 15.5,16.5 3.5,16.5C 3.33591,13.8127 3.50258,11.146 4,8.5C 4.49546,10.4727 4.66212,12.4727 4.5,14.5C 16.5479,13.8549 28.2146,14.5216 39.5,16.5 Z"/></g>
<g><path style="opacity:1" fill="#883623" d="M 2.5,8.5 C 2.1936,11.3854 2.52693,14.0521 3.5,16.5C 15.5,16.5 27.5,16.5 39.5,16.5C 41.1667,16.5 42.8333,16.5 44.5,16.5C 30.3431,17.4959 16.0097,17.8293 1.5,17.5C 1.19,14.2869 1.52333,11.2869 2.5,8.5 Z"/></g>
<g><path style="opacity:1" fill="#eddbd1" d="M 35.5,36.5 C 33.1878,38.1455 31.1878,40.1455 29.5,42.5C 22.5236,43.3311 15.5236,43.8311 8.5,44C 15.1915,44.1691 21.8581,44.6691 28.5,45.5C 27.4229,47.7294 26.7563,50.0628 26.5,52.5C 20.4908,52.3338 14.4908,52.5005 8.5,53C 14.8838,53.2059 21.2171,53.7059 27.5,54.5C 34.231,53.6538 39.731,50.6538 44,45.5C 44.4992,50.1548 44.6658,54.8215 44.5,59.5C 30.6766,60.4958 16.6766,60.8291 2.5,60.5C 2.31487,46.5546 2.31487,32.5546 2.5,18.5C 16.5,18.5 30.5,18.5 44.5,18.5C 44.6646,21.5184 44.498,24.5184 44,27.5C 41.8333,29.6667 39.6667,31.8333 37.5,34C 27.8333,34.3333 18.1667,34.6667 8.5,35C 17.676,35.1703 26.676,35.6703 35.5,36.5 Z"/></g>
<g><path style="opacity:1" fill="#e75c3c" d="M 53.5,19.5 C 58.5874,20.3894 60.5874,23.2227 59.5,28C 56.3936,26.9349 53.727,24.9349 51.5,22C 52.3805,21.2917 53.0472,20.4584 53.5,19.5 Z"/></g>
<g><path style="opacity:1" fill="#d79c88" d="M 54.5,31.5 C 54.1436,29.8102 53.1436,28.8102 51.5,28.5C 51.1436,26.8102 50.1436,25.8102 48.5,25.5C 49.0024,23.9153 50.0024,23.4153 51.5,24C 53.5,26 55.5,28 57.5,30C 56.7562,31.0386 55.7562,31.5386 54.5,31.5 Z"/></g>
<g><path style="opacity:1" fill="#615a56" d="M 8.5,25.5 C 18.5222,25.1681 28.5222,25.5015 38.5,26.5C 33.5,26.8333 28.5,27.1667 23.5,27.5C 18.1194,27.4942 13.1194,26.8275 8.5,25.5 Z"/></g>
<g><path style="opacity:1" fill="#dedfdf" d="M 51.5,28.5 C 51.6495,29.552 51.4828,30.552 51,31.5C 47.9621,34.3694 45.1288,37.3694 42.5,40.5C 42.1667,41.5 41.5,42.1667 40.5,42.5C 38.6366,44.7053 36.3033,46.0387 33.5,46.5C 38.5,39.5 44.5,33.5 51.5,28.5 Z"/></g>
<g><path style="opacity:1" fill="#232b2f" d="M 51.5,28.5 C 53.1436,28.8102 54.1436,29.8102 54.5,31.5C 50.5,34.5 46.5,37.5 42.5,40.5C 45.1288,37.3694 47.9621,34.3694 51,31.5C 51.4828,30.552 51.6495,29.552 51.5,28.5 Z"/></g>
<g><path style="opacity:1" fill="#6cb9e0" d="M 48.5,25.5 C 48.6107,26.1174 48.944,26.6174 49.5,27C 44.1667,32.3333 38.8333,37.6667 33.5,43C 32.6683,43.6877 32.0016,43.521 31.5,42.5C 33.1897,40.4807 34.8564,38.4807 36.5,36.5C 40.5,32.8333 44.5,29.1667 48.5,25.5 Z"/></g>
<g><path style="opacity:1" fill="#6ab6dc" d="M 54.5,31.5 C 51.2317,36.1073 47.5651,40.4406 43.5,44.5C 41.4268,46.5798 39.0934,48.2464 36.5,49.5C 37.8333,47.1667 39.1667,44.8333 40.5,42.5C 41.5,42.1667 42.1667,41.5 42.5,40.5C 46.5,37.5 50.5,34.5 54.5,31.5 Z"/></g>
<g><path style="opacity:1" fill="#222b30" d="M 40.5,42.5 C 39.1667,44.8333 37.8333,47.1667 36.5,49.5C 35.1667,48.8333 34.1667,47.8333 33.5,46.5C 36.3033,46.0387 38.6366,44.7053 40.5,42.5 Z"/></g>
<g><path style="opacity:1" fill="#1f1f1f" d="M 48.5,25.5 C 50.1436,25.8102 51.1436,26.8102 51.5,28.5C 44.5,33.5 38.5,39.5 33.5,46.5C 30.1728,43.8542 29.0062,44.8542 30,49.5C 32.2015,52.0371 34.3681,52.0371 36.5,49.5C 39.0934,48.2464 41.4268,46.5798 43.5,44.5C 44.8086,46.5706 45.4752,49.0706 45.5,52C 45.4971,54.6903 45.1638,57.1903 44.5,59.5C 44.6658,54.8215 44.4992,50.1548 44,45.5C 39.731,50.6538 34.231,53.6538 27.5,54.5C 21.2171,53.7059 14.8838,53.2059 8.5,53C 14.4908,52.5005 20.4908,52.3338 26.5,52.5C 26.7563,50.0628 27.4229,47.7294 28.5,45.5C 21.8581,44.6691 15.1915,44.1691 8.5,44C 15.5236,43.8311 22.5236,43.3311 29.5,42.5C 31.1878,40.1455 33.1878,38.1455 35.5,36.5C 35.8333,36.5 36.1667,36.5 36.5,36.5C 34.8564,38.4807 33.1897,40.4807 31.5,42.5C 32.0016,43.521 32.6683,43.6877 33.5,43C 38.8333,37.6667 44.1667,32.3333 49.5,27C 48.944,26.6174 48.6107,26.1174 48.5,25.5 Z"/></g>
<g><path style="opacity:1" fill="#e2a48e" d="M 33.5,46.5 C 34.1667,47.8333 35.1667,48.8333 36.5,49.5C 34.3681,52.0371 32.2015,52.0371 30,49.5C 29.0062,44.8542 30.1728,43.8542 33.5,46.5 Z"/></g>
<g><path style="opacity:1" fill="#faf3ef" d="M 3.5,20.5 C 5.47974,32.4547 6.1464,44.788 5.5,57.5C 16.5202,57.1679 27.5202,57.5012 38.5,58.5C 26.9382,59.8199 15.4382,59.8199 4,58.5C 3.50012,45.8377 3.33345,33.1711 3.5,20.5 Z"/></g>
</svg>
